<?xml version="1.0" encoding="UTF-8"?>
<!DOCTYPE svg PUBLIC "-//W3C//DTD SVG 1.1//EN" "http://www.w3.org/Graphics/SVG/1.1/DTD/svg11.dtd">
<!-- Creator: CorelDRAW 2020 (64-Bit) -->
<svg xmlns="http://www.w3.org/2000/svg" xml:space="preserve" width="210mm" height="210mm" version="1.1" style="shape-rendering:geometricPrecision; text-rendering:geometricPrecision; image-rendering:optimizeQuality; fill-rule:evenodd; clip-rule:evenodd"
viewBox="0 0 21000 21000"
 xmlns:xlink="http://www.w3.org/1999/xlink"
 xmlns:xodm="http://www.corel.com/coreldraw/odm/2003">
 <defs>
  <style type="text/css">
   <![CDATA[
    .fil0 {fill:black;fill-rule:nonzero}
   ]]>
  </style>
 </defs>
 <g id="Plan_x0020_1">
  <metadata id="CorelCorpID_0Corel-Layer"/>
  <path class="fil0" d="M11719.87 840.57l0 15229.06c-293.87,-207.43 -691.45,-328.44 -1123.6,-380.3 -86.43,-17.28 -259.29,-17.28 -345.72,-17.28 -691.45,0 -1434.75,190.15 -2126.19,570.44 -812.45,432.15 -1452.04,1071.74 -1815.05,1763.18 -207.43,380.3 -293.86,760.59 -293.86,1123.6 0,293.86 51.86,570.44 190.15,812.45 345.72,656.87 1106.31,985.31 2005.19,985.31 674.15,0 1417.46,-190.15 2126.19,-570.45 1279.17,-691.44 2108.9,-1832.32 2126.19,-2834.92l0 -16681.09 -743.3 0zm-1918.76 18426.99c-968.02,570.44 -1728.61,847.02 -2229.91,847.02 -293.86,0 -484.01,-86.43 -605.01,-276.58l-103.72 -138.29 -69.15 -155.57c-51.85,-86.43 -69.14,-172.86 -69.14,-276.58 0,-501.3 656.87,-1158.17 1936.04,-1918.76 968.03,-570.44 1745.9,-864.3 2247.2,-864.3 293.86,0 501.3,103.71 605.01,293.86l86.43 138.29 86.43 155.57c51.86,86.43 69.15,155.58 69.15,259.3 0,501.29 -674.16,1175.45 -1953.33,1936.04z"/>
 </g>
</svg>
