<?xml version="1.0" encoding="UTF-8"?>
<!DOCTYPE svg PUBLIC "-//W3C//DTD SVG 1.1//EN" "http://www.w3.org/Graphics/SVG/1.1/DTD/svg11.dtd">
<!-- Creator: CorelDRAW 2020 (64-Bit) -->
<svg xmlns="http://www.w3.org/2000/svg" xml:space="preserve" width="210mm" height="210mm" version="1.1" style="shape-rendering:geometricPrecision; text-rendering:geometricPrecision; image-rendering:optimizeQuality; fill-rule:evenodd; clip-rule:evenodd"
viewBox="0 0 21000 21000"
 xmlns:xlink="http://www.w3.org/1999/xlink"
 xmlns:xodm="http://www.corel.com/coreldraw/odm/2003">
 <defs>
  <style type="text/css">
   <![CDATA[
    .fil0 {fill:black;fill-rule:nonzero}
   ]]>
  </style>
 </defs>
 <g id="Plan_x0020_1">
  <metadata id="CorelCorpID_0Corel-Layer"/>
  <path class="fil0" d="M17510.71 10503.5c-86.43,-2057.05 -1123.59,-3664.66 -1434.74,-4114.1l-17.29 -17.28c-51.86,-69.15 -86.43,-103.72 -605.01,-708.73 -622.3,-726.02 -1590.33,-1832.33 -1901.48,-2316.34 -414.86,-622.3 -743.3,-1365.6 -1002.59,-2126.19 0,-17.29 -17.29,-51.86 -17.29,-51.86 -17.28,-34.57 -103.71,-449.44 -155.57,-622.3 -17.29,-51.86 -17.29,-103.72 -17.29,-103.72 -17.28,-69.14 -103.71,-207.43 -311.15,-207.43 -17.28,0 -34.57,17.29 -51.86,17.29 -155.57,17.28 -276.57,138.28 -276.57,293.86l0 4165.95 0 11356.98c-293.87,-207.44 -691.45,-328.44 -1123.6,-380.3 -86.43,-17.28 -242.01,-17.28 -328.44,-17.28l-17.28 0c-691.45,0 -1434.75,190.14 -2126.19,570.44 -812.45,432.15 -1452.04,1071.74 -1815.05,1763.18 -207.43,380.3 -293.86,760.59 -293.86,1123.6 0,293.86 51.86,570.44 190.15,812.44 345.72,656.88 1123.59,985.31 2022.47,985.31 674.16,0 1417.46,-190.14 2126.19,-570.44 1296.46,-708.73 2108.91,-1849.61 2108.91,-2869.49l0 -12376.86c933.45,414.87 2420.05,1417.46 3422.65,3111.5 34.57,51.86 51.86,86.43 86.43,138.29 328.44,553.16 777.87,1331.03 777.87,2731.21 0,1296.45 -172.86,2610.2 -518.58,3923.94 -17.29,86.43 -51.86,172.86 -51.86,259.3 0,103.71 51.86,207.43 172.86,259.29 17.29,17.28 51.86,17.28 86.43,17.28 138.29,0 224.72,-155.57 276.58,-293.86l0 -17.29c674.16,-1659.46 795.16,-3284.36 795.16,-4304.24 0,-155.57 0,-311.15 0,-432.15z"/>
 </g>
</svg>
