<?xml version="1.0" encoding="UTF-8"?>
<!DOCTYPE svg PUBLIC "-//W3C//DTD SVG 1.1//EN" "http://www.w3.org/Graphics/SVG/1.1/DTD/svg11.dtd">
<!-- Creator: CorelDRAW 2020 (64-Bit) -->
<svg xmlns="http://www.w3.org/2000/svg" xml:space="preserve" width="210mm" height="210mm" version="1.1" style="shape-rendering:geometricPrecision; text-rendering:geometricPrecision; image-rendering:optimizeQuality; fill-rule:evenodd; clip-rule:evenodd"
viewBox="0 0 21000 21000"
 xmlns:xlink="http://www.w3.org/1999/xlink"
 xmlns:xodm="http://www.corel.com/coreldraw/odm/2003">
 <defs>
  <style type="text/css">
   <![CDATA[
    .fil0 {fill:black;fill-rule:nonzero}
   ]]>
  </style>
 </defs>
 <g id="Plan_x0020_1">
  <metadata id="CorelCorpID_0Corel-Layer"/>
  <path class="fil0" d="M14390.88 10991.14c138.29,121.01 311.15,190.15 484.02,190.15 172.86,0 345.72,-69.14 484.01,-190.15 121,-138.29 190.14,-311.15 190.14,-484.01 0,-172.86 -69.14,-345.72 -190.14,-466.72 -138.29,-138.29 -311.15,-207.44 -484.01,-207.44 -172.87,0 -345.73,69.15 -484.02,207.44 -121,121 -190.14,293.86 -190.14,466.72 0,172.86 69.14,345.72 190.14,484.01zm-2904.06 0c138.29,121.01 311.15,190.15 484.01,190.15 172.86,0 345.72,-69.14 484.01,-190.15 121,-138.29 190.15,-311.15 190.15,-484.01 0,-172.86 -69.15,-345.72 -190.15,-466.72 -138.29,-138.29 -311.15,-207.44 -484.01,-207.44 -172.86,0 -345.72,69.15 -484.01,207.44 -121,121 -190.15,293.86 -190.15,466.72 0,172.86 69.15,345.72 190.15,484.01zm-2955.93 0c138.29,121.01 311.15,190.15 484.01,190.15 172.87,0 345.73,-69.14 484.02,-190.15 121,-138.29 190.14,-311.15 190.14,-484.01 0,-172.86 -69.14,-345.72 -190.14,-466.72 -138.29,-138.29 -311.15,-207.44 -484.02,-207.44 -172.86,0 -345.72,69.15 -484.01,207.44 -121,121 -190.14,293.86 -190.14,466.72 0,172.86 69.14,345.72 190.14,484.01zm-2904.06 0c138.29,121.01 311.15,190.15 484.01,190.15 172.86,0 345.72,-69.14 484.01,-190.15 121,-138.29 190.15,-311.15 190.15,-484.01 0,-172.86 -69.15,-345.72 -190.15,-466.72 -138.29,-138.29 -311.15,-207.44 -484.01,-207.44 -172.86,0 -345.72,69.15 -484.01,207.44 -121.01,121 -190.15,293.86 -190.15,466.72 0,172.86 69.14,345.72 190.15,484.01z"/>
 </g>
</svg>
