<?xml version="1.0" encoding="UTF-8"?>
<!DOCTYPE svg PUBLIC "-//W3C//DTD SVG 1.1//EN" "http://www.w3.org/Graphics/SVG/1.1/DTD/svg11.dtd">
<!-- Creator: CorelDRAW 2020 (64-Bit) -->
<svg xmlns="http://www.w3.org/2000/svg" xml:space="preserve" width="210mm" height="210mm" version="1.1" style="shape-rendering:geometricPrecision; text-rendering:geometricPrecision; image-rendering:optimizeQuality; fill-rule:evenodd; clip-rule:evenodd"
viewBox="0 0 21000 21000"
 xmlns:xlink="http://www.w3.org/1999/xlink"
 xmlns:xodm="http://www.corel.com/coreldraw/odm/2003">
 <defs>
  <style type="text/css">
   <![CDATA[
    .fil0 {fill:#2E2E2D;fill-rule:nonzero}
   ]]>
  </style>
 </defs>
 <g id="Plan_x0020_1">
  <metadata id="CorelCorpID_0Corel-Layer"/>
  <path class="fil0" d="M17562.57 10589.94c-86.43,-2074.33 -1123.6,-3681.94 -1434.75,-4131.38l-17.28 -17.29c0,-34.57 -86.43,-103.71 -605.02,-708.73 -639.58,-726.01 -1590.32,-1832.32 -1901.47,-2333.62 -397.58,-622.3 -777.87,-1365.6 -1019.88,-2126.19 0,-17.29 0,-34.58 0,-34.58 -17.28,-34.57 -103.72,-363 -155.57,-553.15 -17.29,-103.72 -34.58,-155.58 -34.58,-172.86l-17.28 -17.29c-17.29,-34.57 -17.29,-51.86 -34.57,-69.14l-17.29 -34.58c-34.57,-51.85 -103.72,-86.43 -155.57,-103.71 0,0 -17.29,-17.29 -34.58,-17.29 -17.28,0 -34.57,-17.28 -69.14,-17.28 -17.29,0 -34.57,0 -51.86,0 -207.43,17.28 -293.86,190.14 -293.86,328.43l0 224.72 0 15263.64c-293.87,-207.44 -691.45,-328.44 -1123.6,-380.3 -86.43,-17.28 -242.01,-17.28 -328.44,-17.28 -691.44,0 -1434.74,190.14 -2126.19,570.44 -812.45,432.15 -1452.03,1071.74 -1815.04,1763.18 -207.43,397.58 -311.15,777.88 -311.15,1140.88 0,276.58 69.14,553.16 190.15,795.16 345.72,656.88 1123.59,985.31 2022.47,985.31 674.16,0 1417.46,-190.14 2126.19,-570.44 1296.46,-708.73 2126.19,-1866.9 2126.19,-2886.78l0 -7173.73c933.45,414.86 2437.35,1417.46 3457.23,3128.78 328.43,570.44 864.3,1521.18 864.3,2402.77 0,916.16 -34.57,1261.89 -363.01,2523.77 -17.28,86.43 -51.85,172.86 -51.85,259.29 0,103.72 51.85,207.44 172.86,259.3 17.28,17.28 51.86,17.28 86.43,17.28 17.28,0 51.86,0 69.14,0 103.72,-34.57 155.58,-172.86 207.44,-311.15 432.15,-1106.31 639.58,-1815.04 639.58,-2852.21 0,-605.01 -121,-1642.18 -259.29,-2126.19 155.57,-691.44 276.58,-1849.61 276.58,-2558.34 0,-121 -17.29,-328.44 -17.29,-449.44zm-4788.25 -3630.08c34.57,86.43 69.14,190.14 121,311.15 -51.86,-103.72 -86.43,-207.44 -121,-311.15zm570.44 1192.74c0,17.28 17.29,17.28 17.29,17.28 0,-17.28 -17.29,0 -17.29,-17.28zm3422.65 4528.96c-155.57,-311.15 -432.15,-795.16 -639.59,-1089.03l-17.28 -17.28c0,-34.57 -86.43,-103.72 -605.02,-708.73 -639.58,-726.02 -1590.32,-1832.33 -1901.47,-2333.63 -397.58,-622.3 -726.01,-1244.6 -933.45,-1866.9 0,-17.28 -17.28,-51.86 -17.28,-51.86 -138.29,-345.72 -172.87,-1296.45 -172.87,-1452.03 535.87,224.72 2247.2,1071.74 3457.23,3128.79 34.57,51.86 51.86,103.71 86.43,155.57 328.43,553.16 777.87,1331.03 777.87,2731.21 0,328.43 -17.28,1106.31 -34.57,1503.89z"/>
 </g>
</svg>
