<?xml version="1.0" encoding="UTF-8"?>
<!DOCTYPE svg PUBLIC "-//W3C//DTD SVG 1.1//EN" "http://www.w3.org/Graphics/SVG/1.1/DTD/svg11.dtd">
<!-- Creator: CorelDRAW 2020 (64-Bit) -->
<svg xmlns="http://www.w3.org/2000/svg" xml:space="preserve" width="210mm" height="210mm" version="1.1" style="shape-rendering:geometricPrecision; text-rendering:geometricPrecision; image-rendering:optimizeQuality; fill-rule:evenodd; clip-rule:evenodd"
viewBox="0 0 21000 21000"
 xmlns:xlink="http://www.w3.org/1999/xlink"
 xmlns:xodm="http://www.corel.com/coreldraw/odm/2003">
 <defs>
  <style type="text/css">
   <![CDATA[
    .fil0 {fill:black;fill-rule:nonzero}
   ]]>
  </style>
 </defs>
 <g id="Plan_x0020_1">
  <metadata id="CorelCorpID_0Corel-Layer"/>
  <path class="fil0" d="M11719.87 806l0 15263.63c-293.87,-207.43 -691.45,-328.43 -1123.6,-380.29 -86.43,-17.29 -259.29,-17.29 -345.72,-17.29 -691.45,0 -1434.75,190.15 -2126.19,570.45 -812.45,432.15 -1452.04,1071.73 -1815.05,1763.18 -207.43,380.29 -293.86,760.59 -293.86,1123.6 0,293.86 51.86,570.44 190.15,812.44 345.72,656.88 1106.31,985.31 2005.19,985.31 674.15,0 1417.46,-190.15 2126.19,-570.44 1296.46,-708.73 2126.19,-1866.9 2126.19,-2886.78l0 -16663.81 -743.3 0z"/>
 </g>
</svg>
