<?xml version="1.0" encoding="UTF-8"?>
<!DOCTYPE svg PUBLIC "-//W3C//DTD SVG 1.1//EN" "http://www.w3.org/Graphics/SVG/1.1/DTD/svg11.dtd">
<!-- Creator: CorelDRAW 2020 (64-Bit) -->
<svg xmlns="http://www.w3.org/2000/svg" xml:space="preserve" width="210mm" height="210mm" version="1.1" style="shape-rendering:geometricPrecision; text-rendering:geometricPrecision; image-rendering:optimizeQuality; fill-rule:evenodd; clip-rule:evenodd"
viewBox="0 0 21000 21000"
 xmlns:xlink="http://www.w3.org/1999/xlink"
 xmlns:xodm="http://www.corel.com/coreldraw/odm/2003">
 <defs>
  <style type="text/css">
   <![CDATA[
    .fil0 {fill:#2E2E2D;fill-rule:nonzero}
   ]]>
  </style>
 </defs>
 <g id="Plan_x0020_1">
  <metadata id="CorelCorpID_0Corel-Layer"/>
  <path class="fil0" d="M17251.42 10417.08c-17.28,-190.15 -86.43,-484.01 -138.29,-656.87 138.29,-622.3 207.44,-1348.32 207.44,-1987.91 0,-397.58 -34.58,-743.3 -69.15,-1037.16 -138.29,-933.45 -397.58,-1763.19 -1313.74,-2713.92 -812.45,-847.02 -1227.32,-1158.17 -1797.76,-1590.32 -138.29,-103.72 -293.86,-224.72 -449.44,-345.73 -847.02,-656.87 -985.31,-1106.31 -1089.02,-1573.03 -34.57,-155.58 -172.86,-363.01 -432.15,-363.01 -17.29,0 -34.58,0 -51.86,0 -242.01,34.57 -397.58,172.86 -397.58,293.86l0 15626.65c-293.87,-207.44 -691.45,-328.44 -1123.6,-380.3 -86.43,-17.28 -242.01,-17.28 -328.44,-17.28 -691.44,0 -1434.74,190.14 -2126.19,570.44 -812.45,432.15 -1452.03,1071.74 -1815.04,1763.18 -207.43,397.58 -311.15,777.88 -311.15,1140.88 0,276.58 69.14,553.16 190.15,795.16 345.72,656.88 1123.59,985.31 2022.47,985.31 674.16,0 1417.46,-190.14 2126.19,-570.44 1296.46,-708.73 2126.19,-1866.9 2126.19,-2886.78l0 -2973.21c985.31,380.29 2973.22,1538.46 3578.23,2592.92 328.44,570.44 414.87,1158.17 414.87,1676.75 0,449.44 -69.15,829.73 -121.01,1089.02 -17.28,86.43 -34.57,155.58 -34.57,207.44 0,51.86 0,86.43 0,121 0,207.43 69.15,311.15 242.01,363.01 34.57,0 69.14,17.28 103.71,17.28 259.3,0 328.44,-242 363.01,-363 0,-17.29 207.44,-777.88 207.44,-1884.19 0,-242 -17.29,-501.3 -34.58,-777.87 -17.28,-103.72 -69.14,-276.58 -103.71,-380.3 155.57,-639.58 207.43,-1382.89 207.43,-2057.05 0,-397.58 -17.29,-760.58 -51.86,-1054.45 -17.28,-172.86 -86.43,-466.72 -121,-639.58 121,-622.3 190.15,-1313.75 190.15,-1936.05 0,-397.58 -34.58,-760.59 -69.15,-1054.45zm-674.16 1711.32c-155.57,-242 -449.44,-587.72 -639.58,-795.16 -812.45,-847.02 -1227.32,-1158.17 -1797.76,-1590.32 -138.29,-103.72 -293.86,-224.72 -449.44,-345.72 -795.16,-622.3 -1089.02,-1279.17 -1089.02,-2402.77 207.43,86.43 1763.18,691.44 2627.49,1573.03 898.87,916.17 1348.31,2057.05 1348.31,3560.94zm-17.28 3975.81c-103.72,-138.29 -293.87,-363.01 -414.87,-484.01l-138.29 -138.29c-553.15,-553.16 -1866.9,-1832.33 -2316.34,-2420.06 -397.58,-518.58 -691.44,-1054.45 -898.88,-1573.03 0,-17.29 -17.28,-51.86 -17.28,-51.86 -69.15,-138.29 -121,-518.58 -155.58,-812.45 293.87,103.72 1763.19,726.02 2610.21,1573.04 898.87,916.16 1331.03,2057.04 1331.03,3560.94 0,103.71 0,224.72 0,345.72zm17.28 -7605.89c-155.57,-242.01 -449.44,-587.73 -639.58,-795.16 -812.45,-847.02 -1227.32,-1158.17 -1797.76,-1590.32 -138.29,-103.72 -293.86,-224.72 -449.44,-345.73 -795.16,-622.29 -1089.02,-1261.88 -1089.02,-2368.19 0,-34.57 0,-51.86 0,-86.43 207.43,86.43 1763.18,691.44 2627.49,1573.03 916.16,933.45 1348.31,2091.62 1348.31,3612.8z"/>
 </g>
</svg>
