<?xml version="1.0" encoding="UTF-8"?>
<!DOCTYPE svg PUBLIC "-//W3C//DTD SVG 1.1//EN" "http://www.w3.org/Graphics/SVG/1.1/DTD/svg11.dtd">
<!-- Creator: CorelDRAW 2020 (64-Bit) -->
<svg xmlns="http://www.w3.org/2000/svg" xml:space="preserve" width="210mm" height="210mm" version="1.1" style="shape-rendering:geometricPrecision; text-rendering:geometricPrecision; image-rendering:optimizeQuality; fill-rule:evenodd; clip-rule:evenodd"
viewBox="0 0 21000 21000"
 xmlns:xlink="http://www.w3.org/1999/xlink"
 xmlns:xodm="http://www.corel.com/coreldraw/odm/2003">
 <defs>
  <style type="text/css">
   <![CDATA[
    .fil0 {fill:black}
   ]]>
  </style>
 </defs>
 <g id="Plan_x0020_1">
  <metadata id="CorelCorpID_0Corel-Layer"/>
  <path class="fil0" d="M17327.34 7333.59l-597.06 12752.2c-21.66,510.97 -442.31,914.23 -953.75,914.23l-10553.06 0c-511.39,0 -932.09,-403.26 -953.75,-914.18l-597.09 -12752.2c-492.32,-38.02 -880.15,-449.74 -880.15,-951.79l0 -2786.8c0,-527.13 427.55,-954.66 954.66,-954.66l3359.26 0 0 -1685.71c0,-527.13 427.54,-954.66 954.66,-954.66l4877.96 0c527.13,0 954.66,427.54 954.66,954.66l0 1685.71 3359.25 0c527.18,0 954.59,427.5 954.59,954.66l0 2786.75c0,502.07 -387.85,913.78 -880.18,951.79zm-8311.62 -5424.3l0 731.1 2968.65 0 0 -731.1 -2968.65 0zm5845.86 17181.42l554.69 -11754.21 -9832.54 0.01 554.77 11754.2 8723.08 0zm1436.7 -13663.52l0 -877.53 -11596.48 0 0 877.53 11596.48 0z"/>
  <path class="fil0" d="M8765.22 8930.63c527.21,0 954.79,427.6 954.79,954.8l0.01 6587.92c0,527.2 -427.6,954.8 -954.8,954.8 -527.21,0 -954.8,-427.6 -954.8,-954.8l0 -6587.92c0,-527.21 427.6,-954.8 954.8,-954.8zm3455.3 0c527.23,0 954.8,427.58 954.8,954.8l0 6587.92c0,527.22 -427.57,954.8 -954.8,954.8 -527.21,0 -954.8,-427.6 -954.8,-954.8l0 -6587.92c0,-527.21 427.6,-954.8 954.8,-954.8z"/>
 </g>
</svg>
