<?xml version="1.0" encoding="UTF-8"?>
<!DOCTYPE svg PUBLIC "-//W3C//DTD SVG 1.1//EN" "http://www.w3.org/Graphics/SVG/1.1/DTD/svg11.dtd">
<!-- Creator: CorelDRAW 2020 (64-Bit) -->
<svg xmlns="http://www.w3.org/2000/svg" xml:space="preserve" width="210mm" height="210mm" version="1.1" style="shape-rendering:geometricPrecision; text-rendering:geometricPrecision; image-rendering:optimizeQuality; fill-rule:evenodd; clip-rule:evenodd"
viewBox="0 0 21000 21000"
 xmlns:xlink="http://www.w3.org/1999/xlink"
 xmlns:xodm="http://www.corel.com/coreldraw/odm/2003">
 <defs>
  <style type="text/css">
   <![CDATA[
    .fil0 {fill:black;fill-rule:nonzero}
   ]]>
  </style>
 </defs>
 <g id="Plan_x0020_1">
  <metadata id="CorelCorpID_0Corel-Layer"/>
  <path class="fil0" d="M9247.97 16259.78c-2385.48,0 -3232.5,1210.03 -3232.5,2333.62 0,1123.6 847.02,2333.63 3232.5,2333.63 2385.49,0 3215.22,-1210.03 3215.22,-2333.63 0,-1123.59 -829.73,-2333.62 -3215.22,-2333.62zm-1434.74 1573.04c-17.29,-69.15 -17.29,-138.29 -17.29,-207.44 0,-138.29 34.57,-276.58 103.72,-397.58 121,-172.86 328.43,-293.86 587.72,-345.72 224.72,-51.86 345.73,-86.43 795.16,-86.43l17.29 0c691.45,0 916.16,639.58 1106.31,1296.46l51.86 172.86c138.29,449.44 207.43,829.73 207.43,1123.59 0,207.44 -34.57,397.59 -103.71,535.87 -103.72,190.15 -276.58,311.15 -570.44,380.3 -155.58,34.57 -414.87,51.86 -414.87,51.86 -86.43,0 -155.58,17.28 -224.72,17.28 -553.16,0 -898.88,-207.43 -1140.88,-950.73 -207.44,-639.59 -242.01,-829.74 -397.58,-1590.32z"/>
 </g>
</svg>
