<?xml version="1.0" encoding="UTF-8"?>
<!DOCTYPE svg PUBLIC "-//W3C//DTD SVG 1.1//EN" "http://www.w3.org/Graphics/SVG/1.1/DTD/svg11.dtd">
<!-- Creator: CorelDRAW 2020 (64-Bit) -->
<svg xmlns="http://www.w3.org/2000/svg" xml:space="preserve" width="210mm" height="210mm" version="1.1" style="shape-rendering:geometricPrecision; text-rendering:geometricPrecision; image-rendering:optimizeQuality; fill-rule:evenodd; clip-rule:evenodd"
viewBox="0 0 21000 21000"
 xmlns:xlink="http://www.w3.org/1999/xlink"
 xmlns:xodm="http://www.corel.com/coreldraw/odm/2003">
 <defs>
  <style type="text/css">
   <![CDATA[
    .fil0 {fill:black;fill-rule:nonzero}
   ]]>
  </style>
 </defs>
 <g id="Plan_x0020_1">
  <metadata id="CorelCorpID_0Corel-Layer"/>
  <path class="fil0" d="M5191.02 1536.12c-285.51,-542.47 -913.64,-813.72 -1655.98,-813.72 -556.75,0 -1172.2,154.1 -1755.9,471.11 -1072.27,582.35 -1755.91,1541.76 -1755.91,2384.03l0 4176.51 0 4176.51 0 3462.83 0 5505.4 613.86 0 0 -5505.4 0 -2306.51c242.68,171.31 571.01,271.24 927.91,314.07 71.37,14.27 214.14,14.27 285.51,14.27 571.03,0 1184.88,-157.03 1755.91,-471.09 670.96,-356.9 1199.16,-885.09 1498.94,-1456.13 171.31,-314.05 242.68,-628.12 242.68,-927.91 0,-242.69 -42.82,-471.1 -157.02,-670.96 -285.51,-542.46 -913.64,-813.71 -1655.98,-813.71 -556.75,0 -1172.2,154.1 -1755.9,471.1 -460,249.83 -848.39,569.09 -1142.05,918.68l0 -1554.83c242.68,171.32 571.01,271.25 927.91,314.07 71.37,14.27 214.14,14.27 285.51,14.27 571.03,0 1184.88,-157.02 1755.91,-471.09 670.96,-356.89 1199.16,-885.09 1498.94,-1456.12 171.31,-314.06 242.68,-628.13 242.68,-927.91 0,-242.7 -42.82,-471.11 -157.02,-670.97 -285.51,-542.46 -913.64,-813.71 -1655.98,-813.71 -556.75,0 -1172.2,154.1 -1755.9,471.11 -460,249.82 -848.39,569.08 -1142.05,918.67l0 -1554.83c242.68,171.32 571.01,271.25 927.91,314.07 71.37,14.27 214.14,14.27 285.51,14.27 571.03,0 1184.88,-157.02 1755.91,-471.09 670.96,-356.89 1199.16,-885.09 1498.94,-1456.12 171.31,-314.06 242.68,-628.13 242.68,-927.91 0,-242.7 -42.82,-471.11 -157.02,-670.96z"/>
  <path class="fil0" d="M20805.49 1298.81c-285.51,-542.47 -913.64,-813.71 -1655.97,-813.71 -556.75,0 -1172.21,154.09 -1755.91,471.1 -1072.27,582.35 -1755.91,1541.77 -1755.91,2384.03l0 4176.51 0 4176.51 0 3462.83 0 5505.4 613.86 0 0 -5505.4 0 -2306.51c242.68,171.32 571.02,271.24 927.91,314.07 71.37,14.27 214.14,14.27 285.52,14.27 571.03,0 1184.87,-157.02 1755.9,-471.09 670.96,-356.9 1199.16,-885.09 1498.95,-1456.12 171.3,-314.06 242.68,-628.13 242.68,-927.91 0,-242.7 -42.83,-471.11 -157.03,-670.97 -285.51,-542.46 -913.64,-813.71 -1655.97,-813.71 -556.75,0 -1172.21,154.1 -1755.91,471.11 -460,249.82 -848.39,569.08 -1142.05,918.67l0 -1554.83c242.68,171.32 571.02,271.25 927.91,314.07 71.37,14.27 214.14,14.27 285.52,14.27 571.03,0 1184.87,-157.02 1755.9,-471.09 670.96,-356.89 1199.16,-885.09 1498.95,-1456.12 171.3,-314.06 242.68,-628.13 242.68,-927.91 0,-242.7 -42.83,-471.11 -157.03,-670.96 -285.51,-542.47 -913.64,-813.72 -1655.97,-813.72 -556.75,0 -1172.21,154.1 -1755.91,471.11 -460,249.83 -848.39,569.08 -1142.05,918.68l0 -1554.84c242.68,171.32 571.02,271.25 927.91,314.07 71.37,14.27 214.14,14.27 285.52,14.27 571.03,0 1184.87,-157.02 1755.9,-471.09 670.96,-356.89 1199.16,-885.09 1498.95,-1456.12 171.3,-314.06 242.68,-628.13 242.68,-927.91 0,-242.69 -42.83,-471.1 -157.03,-670.96z"/>
  <path class="fil0" d="M12425.78 1987.18c619.97,211.69 1421.39,619.96 1512.11,680.45 60.49,30.24 105.85,45.36 151.22,45.36 60.48,0 90.72,-30.24 120.96,-60.48 15.13,-15.13 30.25,-45.37 30.25,-90.73 0,-45.36 -15.12,-90.73 -60.49,-136.09 0,-15.12 -317.54,-393.15 -922.39,-786.3 -544.36,-347.79 -1466.74,-771.18 -2706.68,-771.18 -1239.93,0 -2147.2,423.39 -2706.68,771.18 -604.84,393.15 -922.39,771.18 -922.39,786.3 -45.36,45.36 -60.48,90.73 -60.48,136.09 0,45.36 15.12,75.6 30.24,90.73 30.24,30.24 75.61,60.48 120.97,60.48 45.36,0 90.73,-15.12 151.21,-45.36 90.73,-60.49 907.27,-499 1512.11,-680.45 665.33,-211.7 1239.94,-317.55 1875.02,-317.55 635.09,0 1239.94,90.73 1875.02,317.55z"/>
  <path class="fil0" d="M12390.25 7977.98c619.97,-211.69 1421.39,-619.96 1512.11,-680.45 60.49,-30.24 105.85,-45.36 151.22,-45.36 60.48,0 90.72,30.24 120.96,60.48 15.13,15.13 30.25,45.37 30.25,90.73 0,45.36 -15.12,90.73 -60.49,136.09 0,15.12 -317.54,393.15 -922.39,786.3 -544.36,347.79 -1466.74,771.18 -2706.68,771.18 -1239.93,0 -2147.2,-423.39 -2706.68,-771.18 -604.84,-393.15 -922.39,-771.18 -922.39,-786.3 -45.36,-45.36 -60.48,-90.73 -60.48,-136.09 0,-45.36 15.12,-75.6 30.24,-90.73 30.24,-30.24 75.61,-60.48 120.97,-60.48 45.36,0 90.73,15.12 151.21,45.36 90.73,60.49 907.27,499 1512.11,680.45 665.33,211.7 1239.94,317.55 1875.02,317.55 635.09,0 1239.94,-90.73 1875.02,-317.55z"/>
  <path class="fil0" d="M12425.78 12227.53c619.97,-211.69 1421.39,-619.96 1512.11,-680.45 60.49,-30.24 105.85,-45.36 151.22,-45.36 60.48,0 90.72,30.24 120.96,60.48 15.13,15.13 30.25,45.37 30.25,90.73 0,45.36 -15.12,90.73 -60.49,136.09 0,15.12 -317.54,393.15 -922.39,786.3 -544.36,347.79 -1466.74,771.18 -2706.68,771.18 -1239.93,0 -2147.2,-423.39 -2706.68,-771.18 -604.84,-393.15 -922.39,-771.18 -922.39,-786.3 -45.36,-45.36 -60.48,-90.73 -60.48,-136.09 0,-45.36 15.12,-75.6 30.24,-90.73 30.24,-30.24 75.61,-60.48 120.97,-60.48 45.36,0 90.73,15.12 151.21,45.36 90.73,60.49 907.27,499 1512.11,680.45 665.33,211.7 1239.94,317.55 1875.02,317.55 635.09,0 1239.94,-90.73 1875.02,-317.55z"/>
 </g>
</svg>
