<?xml version="1.0" encoding="UTF-8"?>
<!DOCTYPE svg PUBLIC "-//W3C//DTD SVG 1.1//EN" "http://www.w3.org/Graphics/SVG/1.1/DTD/svg11.dtd">
<!-- Creator: CorelDRAW 2020 (64-Bit) -->
<svg xmlns="http://www.w3.org/2000/svg" xml:space="preserve" width="210mm" height="210mm" version="1.1" style="shape-rendering:geometricPrecision; text-rendering:geometricPrecision; image-rendering:optimizeQuality; fill-rule:evenodd; clip-rule:evenodd"
viewBox="0 0 21000 21000"
 xmlns:xlink="http://www.w3.org/1999/xlink"
 xmlns:xodm="http://www.corel.com/coreldraw/odm/2003">
 <defs>
  <style type="text/css">
   <![CDATA[
    .fil0 {fill:black;fill-rule:nonzero}
   ]]>
  </style>
 </defs>
 <g id="Plan_x0020_1">
  <metadata id="CorelCorpID_0Corel-Layer"/>
  <path class="fil0" d="M12480.45 11851.83c864.31,363 2299.06,1244.6 3267.08,2800.35 311.15,484.01 812.45,1331.03 812.45,2108.9 0,812.45 -34.58,1140.88 -328.44,2247.19 -34.57,86.44 -51.86,172.87 -51.86,242.01 0,103.72 34.57,190.15 155.58,224.72 17.28,17.29 51.86,17.29 86.43,17.29 17.28,0 51.86,0 69.14,0 86.43,-51.86 138.29,-155.58 190.15,-276.58 397.58,-968.02 553.16,-1400.18 622.3,-2385.48 0,-69.15 0,-155.58 0,-276.58 0,-432.16 -51.86,-1261.89 -432.15,-2126.19 121,-622.3 155.57,-1331.03 155.57,-1953.33 0,-432.16 -17.28,-812.45 -51.86,-1123.6 -34.57,-276.58 -86.43,-553.16 -155.57,-812.45 155.57,-691.44 207.43,-1486.6 207.43,-2212.62 0,-414.87 -17.28,-795.16 -51.86,-1106.31 -121,-985.31 -397.58,-1849.62 -1261.88,-2852.21 -777.88,-881.59 -1175.46,-1227.31 -1728.61,-1676.75 -121.01,-121.01 -259.3,-224.72 -414.87,-363.01 -829.73,-708.73 -968.02,-1175.46 -1054.45,-1676.75 -34.58,-172.86 -86.43,-397.58 -397.58,-397.58 -363.01,0 -397.58,328.43 -397.58,328.43l0 15488.36c-293.87,-207.44 -674.16,-328.44 -1123.6,-380.3 -103.72,-17.28 -224.72,-17.28 -328.44,-17.28 -691.44,0 -1434.74,207.43 -2126.19,570.44 -812.45,449.44 -1452.03,1071.74 -1815.04,1763.18 -207.43,397.58 -311.15,777.88 -311.15,1140.88 0,293.87 69.14,553.16 190.15,795.16 363.01,639.59 1123.59,985.31 2022.47,985.31 674.16,0 1417.46,-190.14 2126.19,-570.44 1313.75,-708.73 2108.91,-1866.9 2126.19,-2886.78l0 -5617.98zm17.29 -8262.76c121,51.85 1676.75,708.73 2541.06,1676.75 864.3,968.02 1279.17,2178.05 1279.17,3768.37 0,86.43 0,190.15 0,293.86 -172.86,-293.86 -380.29,-570.44 -605.01,-829.73 -414.87,-466.72 -656.87,-760.59 -1728.61,-1694.04 -1503.9,-1313.74 -1503.9,-3197.93 -1503.9,-3197.93l17.29 -17.28zm1244.6 6966.3c-1210.03,-1019.88 -1210.03,-2817.64 -1210.03,-2817.64 293.87,121 1694.04,760.59 2506.49,1659.47l0 0c1140.88,1279.17 1348.32,2558.34 1348.32,3336.22 0,466.72 -69.15,743.3 -69.15,743.3 -691.44,-1175.46 -2575.63,-2921.35 -2575.63,-2921.35z"/>
 </g>
</svg>
