<?xml version="1.0" encoding="UTF-8"?>
<!DOCTYPE svg PUBLIC "-//W3C//DTD SVG 1.1//EN" "http://www.w3.org/Graphics/SVG/1.1/DTD/svg11.dtd">
<!-- Creator: CorelDRAW 2020 (64-Bit) -->
<svg xmlns="http://www.w3.org/2000/svg" xml:space="preserve" width="210mm" height="210mm" version="1.1" style="shape-rendering:geometricPrecision; text-rendering:geometricPrecision; image-rendering:optimizeQuality; fill-rule:evenodd; clip-rule:evenodd"
viewBox="0 0 21000 21000"
 xmlns:xlink="http://www.w3.org/1999/xlink"
 xmlns:xodm="http://www.corel.com/coreldraw/odm/2003">
 <defs>
  <style type="text/css">
   <![CDATA[
    .fil1 {fill:black}
    .fil0 {fill:#2E2E2D;fill-rule:nonzero}
    .fil2 {fill:black;fill-rule:nonzero}
   ]]>
  </style>
 </defs>
 <g id="Plan_x0020_1">
  <metadata id="CorelCorpID_0Corel-Layer"/>
  <path class="fil0" d="M18939.57 12791.03c260.79,128.15 469.69,317.41 601.6,567.75 54.21,94.83 91.5,196.54 115.23,303.33 23.66,106.52 33.81,217.79 33.81,332.17 0,145.81 -17.95,295.34 -57.55,446.73 -37.09,141.83 -93.2,285.18 -171.35,428.46 -142.75,271.8 -340.44,533.19 -582.59,768.42 -235.94,229.19 -514.09,433.68 -824.77,598.93 -264.64,145.51 -539.11,255.13 -813.71,328.8 -281.61,75.56 -563.36,113.34 -834.79,113.34 -32.72,0 -81.82,-0.01 -133.9,-1.74 -50.83,-1.68 -101.7,-5.09 -135.83,-11.86 -173.06,-20.81 -339.09,-55.96 -490.69,-107.27 -130.73,-44.24 -250.79,-100.55 -355.44,-170.07l0 3140.48 -608.7 56.77 0 -4310.81c0,-400.17 163.73,-827.28 455.07,-1222.84 286.21,-388.61 695.83,-747.04 1194.4,-1019.58 271.28,-145.58 549.02,-255.2 823.59,-328.86 281.78,-75.6 560.29,-113.4 825.04,-113.4 357.71,0 687.54,67.08 960.58,201.25zm-6752.84 0c260.79,128.15 469.69,317.41 601.59,567.75 54.22,94.84 91.51,196.54 115.23,303.33 23.66,106.52 33.81,217.79 33.81,332.17 0,145.81 -17.95,295.34 -57.54,446.74 -37.09,141.83 -93.21,285.18 -171.35,428.45 -142.74,271.79 -340.44,533.19 -582.58,768.42 -235.94,229.19 -514.1,433.68 -824.78,598.93 -264.65,145.52 -539.13,255.14 -813.71,328.8 -281.62,75.56 -563.37,113.34 -834.8,113.34 -32.71,0 -81.8,-0.01 -133.9,-1.74 -50.83,-1.68 -101.7,-5.09 -135.82,-11.86 -173.06,-20.81 -339.09,-55.96 -490.69,-107.27 -130.73,-44.24 -250.79,-100.55 -355.44,-170.07l0 3770.29 -608.7 56.78 0 -4940.63c0,-400.17 163.73,-827.28 455.07,-1222.84 286.21,-388.61 695.83,-747.04 1194.4,-1019.58 271.28,-145.6 549.02,-255.2 823.59,-328.86 281.78,-75.6 560.28,-113.4 825.04,-113.4 357.71,0 687.54,67.08 960.58,201.25zm-6752.86 0c260.79,128.15 469.69,317.41 601.6,567.75 54.21,94.83 91.5,196.54 115.22,303.33 23.67,106.53 33.82,217.79 33.82,332.17 0,145.81 -17.95,295.34 -57.54,446.74 -37.09,141.83 -93.21,285.18 -171.35,428.45 -142.75,271.8 -340.45,533.2 -582.6,768.42 -235.93,229.19 -514.09,433.68 -824.77,598.93 -264.64,145.51 -539.12,255.14 -813.7,328.8 -281.62,75.56 -563.37,113.34 -834.8,113.34 -32.71,0 -81.8,-0.01 -133.9,-1.74 -50.83,-1.68 -101.7,-5.09 -135.83,-11.86 -173.05,-20.81 -339.09,-55.96 -490.68,-107.27 -130.74,-44.24 -250.8,-100.56 -355.44,-170.07l0 4400.11 -608.69 56.77 0 -5570.44c0,-400.16 163.73,-827.28 455.06,-1222.84 286.22,-388.6 695.83,-747.03 1194.4,-1019.58 271.28,-145.6 549.02,-255.2 823.59,-328.86 281.78,-75.6 560.28,-113.4 825.04,-113.4 357.71,0 687.53,67.08 960.57,201.25z"/>
  <path class="fil1" d="M20300.53 12649.27l0 -3733.59 -5147.69 0c47.22,-178.1 83.92,-360.34 109.77,-546.26l5600.92 0.15 0 4279.7 -563 0zm-15553.19 -3733.59l-4062.12 0 0 3733.59 -563 0 0 -4279.7 4622.69 -0.13c-5.17,80.15 -7.8,161.26 -7.8,243.29 0,102.46 3.44,203.46 10.23,302.95z"/>
  <path class="fil2" d="M12682.55 6075.38c-272.83,-190.98 -545.66,-300.11 -1227.75,-463.81 153.38,-34.63 292.34,-67.47 419.93,-99.98l-2871.48 0c-2.59,23.45 -3.94,47.68 -3.94,72.69 0,300.12 190.98,463.82 491.1,463.82 81.85,0 245.55,-27.28 327.4,-54.57 300.11,-81.85 300.11,-81.85 436.53,-81.85 306.34,0 534.6,110.6 688.07,322.14l1928.96 0c-59.83,-58.77 -122.94,-111.94 -188.82,-158.44zm643.41 -1234.42c242.42,-200.7 440.79,-448.55 585.41,-722.23l-2202.97 0c-114.52,227.88 -262.69,444.96 -444.58,647.06 -22.21,26.25 -44.28,51.28 -66.26,75.17l2128.4 0zm819.85 -1392.86c24.58,-132.5 37.32,-266.83 37.32,-401.16 0,-109.91 -8.25,-217 -24.15,-321.07l-2164.12 0c3.71,51.1 5.61,103.57 5.61,157.37 0,191.03 -19.27,379.91 -57.79,564.86l2203.13 0zm-217.91 -1392.86c-159.26,-281.62 -389.14,-525.47 -678.33,-722.23l-4124.52 0c-314.87,198.59 -570.27,443.43 -747.46,722.23l1252.19 0c44.17,-285.25 593.5,-536.16 1142.94,-536.16 466.37,0 820.87,193.22 1026.29,536.16l2128.89 0zm-5807.8 670.63c-13.84,87.12 -21.14,176 -21.14,266.5 0,165.2 23.39,318 67.27,455.73l2114.91 0c18.16,-75.76 27.77,-155.19 27.77,-237.46 0,-175.94 -39.43,-336.11 -122.45,-484.77l-2066.36 0zm627.59 1392.86c146.84,65.99 314.14,101.39 497.17,101.39 172.76,0 334.18,-36.22 476.52,-101.39l-973.69 0zm2418.25 2785.72c10.68,98.75 16.03,204.38 16.03,316.83 0,133.88 -6.31,269.56 -18.6,405.4l2308.5 0c-10.73,-248.83 -67.65,-495.57 -160.19,-722.23l-2145.74 0zm-111.79 1392.86c-60.22,254.14 -140.63,498.79 -238.89,722.23l2340.7 0c117.98,-226.48 205.18,-468.27 258.09,-722.23l-2359.9 0zm-685.48 1392.86c-322.12,300.32 -763.88,477.7 -1205.66,477.7 -490.78,0 -981.48,-218.9 -1144.15,-477.7l-1159.82 0c176.14,289.79 429.5,532.96 749.94,722.23l4080.63 0c382.19,-191.08 714.87,-435.44 986.11,-722.23l-2307.05 0zm-1713.24 -670.63c199.92,-174.35 307.64,-415.09 316.05,-722.23l-2374.6 0c-16.94,100.1 -25.78,205.43 -25.78,315.42 0,141.07 12.13,276.78 35.74,406.81l2048.59 0zm129.48 -1392.86c-189.88,-269.79 -514.87,-432.68 -931.5,-432.68 -402.19,0 -736.25,158.86 -962.51,432.68l1894.01 0z"/>
 </g>
</svg>
